# xmcd
#
# Track frame offsets:
#	150
#	12392
#	23756
#	35521
#	49394
#	61956
#	73396
#	87633
#	98956
#	111601
#	124481
#	137792
#	151122
#	164562
#	176089
#	191183
#	201569
#	215049
#
# Disc length: 3085 seconds
#
# Revision: 0
# Processed by: cddbd v1.5.2PL0 Copyright (c) Steve Scherf et al.
# Submitted via: audiograbber 1.83.01
#
DISCID=260c0b12
DTITLE=Various - Roots Of The Blues - Disc 3
DYEAR=2010
DGENRE=Blues
TTITLE0=Ma Rainey - Stormy Sea Blues
TTITLE1=B.B. King - Shake It Up And Go 
TTITLE2=Arthur "Big Boy" Crudup - Mean Old Frisco Blues
TTITLE3=B.B. King - She Don't Move Me No More 
TTITLE4=Muddy Waters - Little Geneva
TTITLE5=B.B. King - She's A Mean Woman 
TTITLE6=Billie Holiday - I'm A Low-Down Groove
TTITLE7=B.B. King - She's Dynamite 
TTITLE8=John Lee Hooker - Please Don't Go
TTITLE9=B.B. King - Some Day, Somewhere 
TTITLE10=Kokomo Arnold - Cryin' Blues
TTITLE11=B.B. King - Story From My Heart And Soul
TTITLE12=Leadbelly - Death Letter Blues
TTITLE13=B.B. King - Take A Swing With Me (Love You Baby)
TTITLE14=Peter Chatman - Beer Drinkin' Woman
TTITLE15=B.B. King - That Ain't The Way To Do It
TTITLE16=Muddy Waters - Rollin' and Tumblin'
TTITLE17=B.B. King - The Other Night Blues
EXTD=Roots Of The Blues\n4 CD Set - Disc 3 - Play 4-012C\nPlay 24-7 -- Play 4-0
EXTD=12 -- Compiled 2010\n72 Blues Standards That Inspired Generations\nDigital
EXTD=ly Remastered
EXTT0=
EXTT1=
EXTT2=
EXTT3=
EXTT4=
EXTT5=
EXTT6=
EXTT7=
EXTT8=
EXTT9=
EXTT10=
EXTT11=
EXTT12=
EXTT13=
EXTT14=
EXTT15=
EXTT16=
EXTT17=
PLAYORDER=
